<mxfile host="app.diagrams.net" modified="2023-11-10T17:11:58.919Z" agent="Mozilla/5.0 (Windows NT 10.0; Win64; x64) AppleWebKit/537.36 (KHTML, like Gecko) Chrome/119.0.0.0 Safari/537.36 Edg/119.0.0.0" etag="D1Ll5Kof9Ho_L2Q6_m9y" version="22.1.0" type="github" pages="5">
  <diagram name="第 1 页" id="duYfF738FFXLdUVlWwJw">
    <mxGraphModel dx="568" dy="350" grid="1" gridSize="10" guides="1" tooltips="1" connect="1" arrows="1" fold="1" page="1" pageScale="1" pageWidth="827" pageHeight="1169" math="0" shadow="0">
      <root>
        <mxCell id="0" />
        <mxCell id="1" parent="0" />
        <mxCell id="S93av5Pd2ih0I8A_oCEs-7" style="edgeStyle=orthogonalEdgeStyle;rounded=0;orthogonalLoop=1;jettySize=auto;html=1;" edge="1" parent="1" source="S93av5Pd2ih0I8A_oCEs-1" target="S93av5Pd2ih0I8A_oCEs-2">
          <mxGeometry relative="1" as="geometry" />
        </mxCell>
        <mxCell id="S93av5Pd2ih0I8A_oCEs-1" value="完整合规性评估" style="rounded=1;whiteSpace=wrap;html=1;" vertex="1" parent="1">
          <mxGeometry x="240" y="160" width="120" height="30" as="geometry" />
        </mxCell>
        <mxCell id="S93av5Pd2ih0I8A_oCEs-8" style="edgeStyle=orthogonalEdgeStyle;rounded=0;orthogonalLoop=1;jettySize=auto;html=1;" edge="1" parent="1" source="S93av5Pd2ih0I8A_oCEs-2" target="S93av5Pd2ih0I8A_oCEs-4">
          <mxGeometry relative="1" as="geometry" />
        </mxCell>
        <mxCell id="S93av5Pd2ih0I8A_oCEs-2" value="数值合规性评估" style="rounded=1;whiteSpace=wrap;html=1;" vertex="1" parent="1">
          <mxGeometry x="240" y="220" width="120" height="30" as="geometry" />
        </mxCell>
        <mxCell id="S93av5Pd2ih0I8A_oCEs-10" style="edgeStyle=orthogonalEdgeStyle;rounded=0;orthogonalLoop=1;jettySize=auto;html=1;entryX=0.5;entryY=0;entryDx=0;entryDy=0;" edge="1" parent="1" source="S93av5Pd2ih0I8A_oCEs-3" target="S93av5Pd2ih0I8A_oCEs-5">
          <mxGeometry relative="1" as="geometry" />
        </mxCell>
        <mxCell id="S93av5Pd2ih0I8A_oCEs-3" value="时序合规性评估" style="rounded=1;whiteSpace=wrap;html=1;" vertex="1" parent="1">
          <mxGeometry x="240" y="340" width="120" height="30" as="geometry" />
        </mxCell>
        <mxCell id="S93av5Pd2ih0I8A_oCEs-9" style="edgeStyle=orthogonalEdgeStyle;rounded=0;orthogonalLoop=1;jettySize=auto;html=1;entryX=0.5;entryY=0;entryDx=0;entryDy=0;" edge="1" parent="1" source="S93av5Pd2ih0I8A_oCEs-4" target="S93av5Pd2ih0I8A_oCEs-3">
          <mxGeometry relative="1" as="geometry" />
        </mxCell>
        <mxCell id="S93av5Pd2ih0I8A_oCEs-4" value="隐私合规性评估" style="rounded=1;whiteSpace=wrap;html=1;" vertex="1" parent="1">
          <mxGeometry x="240" y="280" width="120" height="30" as="geometry" />
        </mxCell>
        <mxCell id="S93av5Pd2ih0I8A_oCEs-14" style="edgeStyle=orthogonalEdgeStyle;rounded=0;orthogonalLoop=1;jettySize=auto;html=1;entryX=0.5;entryY=0;entryDx=0;entryDy=0;" edge="1" parent="1" source="S93av5Pd2ih0I8A_oCEs-5" target="S93av5Pd2ih0I8A_oCEs-13">
          <mxGeometry relative="1" as="geometry" />
        </mxCell>
        <mxCell id="S93av5Pd2ih0I8A_oCEs-5" value="总体合规性评估" style="rounded=1;whiteSpace=wrap;html=1;" vertex="1" parent="1">
          <mxGeometry x="240" y="400" width="120" height="30" as="geometry" />
        </mxCell>
        <mxCell id="S93av5Pd2ih0I8A_oCEs-12" style="edgeStyle=orthogonalEdgeStyle;rounded=0;orthogonalLoop=1;jettySize=auto;html=1;entryX=0.5;entryY=0;entryDx=0;entryDy=0;" edge="1" parent="1" source="S93av5Pd2ih0I8A_oCEs-11" target="S93av5Pd2ih0I8A_oCEs-1">
          <mxGeometry relative="1" as="geometry" />
        </mxCell>
        <mxCell id="S93av5Pd2ih0I8A_oCEs-11" value="开始" style="ellipse;whiteSpace=wrap;html=1;" vertex="1" parent="1">
          <mxGeometry x="270" y="110" width="60" height="30" as="geometry" />
        </mxCell>
        <mxCell id="S93av5Pd2ih0I8A_oCEs-13" value="结束" style="ellipse;whiteSpace=wrap;html=1;" vertex="1" parent="1">
          <mxGeometry x="270" y="450" width="60" height="30" as="geometry" />
        </mxCell>
      </root>
    </mxGraphModel>
  </diagram>
  <diagram id="mF9gMwfxwTOwPjRndG5x" name="第 2 页">
    <mxGraphModel dx="416" dy="329" grid="1" gridSize="10" guides="1" tooltips="1" connect="1" arrows="1" fold="1" page="1" pageScale="1" pageWidth="827" pageHeight="1169" math="0" shadow="0">
      <root>
        <mxCell id="0" />
        <mxCell id="1" parent="0" />
        <mxCell id="7Yih3nGBpSFQq-6IW1fI-1" style="edgeStyle=orthogonalEdgeStyle;rounded=0;orthogonalLoop=1;jettySize=auto;html=1;endArrow=none;endFill=0;" edge="1" parent="1" source="7Yih3nGBpSFQq-6IW1fI-2" target="7Yih3nGBpSFQq-6IW1fI-4">
          <mxGeometry relative="1" as="geometry" />
        </mxCell>
        <mxCell id="7Yih3nGBpSFQq-6IW1fI-2" value="唯一性评估模块" style="rounded=1;whiteSpace=wrap;html=1;" vertex="1" parent="1">
          <mxGeometry x="240" y="160" width="120" height="30" as="geometry" />
        </mxCell>
        <mxCell id="7Yih3nGBpSFQq-6IW1fI-3" style="edgeStyle=orthogonalEdgeStyle;rounded=0;orthogonalLoop=1;jettySize=auto;html=1;endArrow=none;endFill=0;" edge="1" parent="1" source="7Yih3nGBpSFQq-6IW1fI-4" target="7Yih3nGBpSFQq-6IW1fI-8">
          <mxGeometry relative="1" as="geometry" />
        </mxCell>
        <mxCell id="7Yih3nGBpSFQq-6IW1fI-4" value="完整性评估模块" style="rounded=1;whiteSpace=wrap;html=1;" vertex="1" parent="1">
          <mxGeometry x="240" y="210" width="120" height="30" as="geometry" />
        </mxCell>
        <mxCell id="7Yih3nGBpSFQq-6IW1fI-6" value="约束性评估模块" style="rounded=1;whiteSpace=wrap;html=1;" vertex="1" parent="1">
          <mxGeometry x="240" y="310" width="120" height="30" as="geometry" />
        </mxCell>
        <mxCell id="7Yih3nGBpSFQq-6IW1fI-7" style="edgeStyle=orthogonalEdgeStyle;rounded=0;orthogonalLoop=1;jettySize=auto;html=1;entryX=0.5;entryY=0;entryDx=0;entryDy=0;endArrow=none;endFill=0;" edge="1" parent="1" source="7Yih3nGBpSFQq-6IW1fI-8" target="7Yih3nGBpSFQq-6IW1fI-6">
          <mxGeometry relative="1" as="geometry" />
        </mxCell>
        <mxCell id="7Yih3nGBpSFQq-6IW1fI-8" value="真实性评估模块" style="rounded=1;whiteSpace=wrap;html=1;" vertex="1" parent="1">
          <mxGeometry x="240" y="260" width="120" height="30" as="geometry" />
        </mxCell>
      </root>
    </mxGraphModel>
  </diagram>
  <diagram id="cI1aJ0G-w0yJV4L5wLN0" name="第 3 页">
    <mxGraphModel dx="416" dy="329" grid="1" gridSize="10" guides="1" tooltips="1" connect="1" arrows="1" fold="1" page="1" pageScale="1" pageWidth="827" pageHeight="1169" math="0" shadow="0">
      <root>
        <mxCell id="0" />
        <mxCell id="1" parent="0" />
        <mxCell id="YSTus_24vcbSOrq1fish-1" style="edgeStyle=orthogonalEdgeStyle;rounded=0;orthogonalLoop=1;jettySize=auto;html=1;endArrow=none;endFill=0;" edge="1" parent="1" source="YSTus_24vcbSOrq1fish-2" target="YSTus_24vcbSOrq1fish-4">
          <mxGeometry relative="1" as="geometry" />
        </mxCell>
        <mxCell id="YSTus_24vcbSOrq1fish-2" value="数据准备模块" style="rounded=1;whiteSpace=wrap;html=1;" vertex="1" parent="1">
          <mxGeometry x="240" y="160" width="120" height="30" as="geometry" />
        </mxCell>
        <mxCell id="YSTus_24vcbSOrq1fish-3" style="edgeStyle=orthogonalEdgeStyle;rounded=0;orthogonalLoop=1;jettySize=auto;html=1;endArrow=none;endFill=0;" edge="1" parent="1" source="YSTus_24vcbSOrq1fish-4" target="YSTus_24vcbSOrq1fish-8">
          <mxGeometry relative="1" as="geometry" />
        </mxCell>
        <mxCell id="YSTus_24vcbSOrq1fish-4" value="精度检测模块" style="rounded=1;whiteSpace=wrap;html=1;" vertex="1" parent="1">
          <mxGeometry x="240" y="210" width="120" height="30" as="geometry" />
        </mxCell>
        <mxCell id="YSTus_24vcbSOrq1fish-5" style="edgeStyle=orthogonalEdgeStyle;rounded=0;orthogonalLoop=1;jettySize=auto;html=1;entryX=0.5;entryY=0;entryDx=0;entryDy=0;endArrow=none;endFill=0;" edge="1" parent="1" source="YSTus_24vcbSOrq1fish-6" target="YSTus_24vcbSOrq1fish-9">
          <mxGeometry relative="1" as="geometry" />
        </mxCell>
        <mxCell id="YSTus_24vcbSOrq1fish-6" value="格式检测模块" style="rounded=1;whiteSpace=wrap;html=1;" vertex="1" parent="1">
          <mxGeometry x="240" y="310" width="120" height="30" as="geometry" />
        </mxCell>
        <mxCell id="YSTus_24vcbSOrq1fish-7" style="edgeStyle=orthogonalEdgeStyle;rounded=0;orthogonalLoop=1;jettySize=auto;html=1;entryX=0.5;entryY=0;entryDx=0;entryDy=0;endArrow=none;endFill=0;" edge="1" parent="1" source="YSTus_24vcbSOrq1fish-8" target="YSTus_24vcbSOrq1fish-6">
          <mxGeometry relative="1" as="geometry" />
        </mxCell>
        <mxCell id="YSTus_24vcbSOrq1fish-8" value="范围检测模块" style="rounded=1;whiteSpace=wrap;html=1;" vertex="1" parent="1">
          <mxGeometry x="240" y="260" width="120" height="30" as="geometry" />
        </mxCell>
        <mxCell id="YSTus_24vcbSOrq1fish-9" value="准确性检测模块" style="rounded=1;whiteSpace=wrap;html=1;" vertex="1" parent="1">
          <mxGeometry x="240" y="360" width="120" height="30" as="geometry" />
        </mxCell>
      </root>
    </mxGraphModel>
  </diagram>
  <diagram id="NSO1p1elAoegMS5FJW9e" name="第 4 页">
    <mxGraphModel dx="416" dy="329" grid="1" gridSize="10" guides="1" tooltips="1" connect="1" arrows="1" fold="1" page="1" pageScale="1" pageWidth="827" pageHeight="1169" math="0" shadow="0">
      <root>
        <mxCell id="0" />
        <mxCell id="1" parent="0" />
        <mxCell id="IXZvvqu_5NTiVDgzNTZM-1" style="edgeStyle=orthogonalEdgeStyle;rounded=0;orthogonalLoop=1;jettySize=auto;html=1;endArrow=none;endFill=0;" edge="1" parent="1" source="IXZvvqu_5NTiVDgzNTZM-2" target="IXZvvqu_5NTiVDgzNTZM-4">
          <mxGeometry relative="1" as="geometry" />
        </mxCell>
        <mxCell id="IXZvvqu_5NTiVDgzNTZM-2" value="&lt;p class=&quot;MsoNormal&quot;&gt;确定权重系数&lt;/p&gt;" style="rounded=1;whiteSpace=wrap;html=1;" vertex="1" parent="1">
          <mxGeometry x="240" y="160" width="120" height="30" as="geometry" />
        </mxCell>
        <mxCell id="IXZvvqu_5NTiVDgzNTZM-3" style="edgeStyle=orthogonalEdgeStyle;rounded=0;orthogonalLoop=1;jettySize=auto;html=1;endArrow=none;endFill=0;" edge="1" parent="1" source="IXZvvqu_5NTiVDgzNTZM-4" target="IXZvvqu_5NTiVDgzNTZM-8">
          <mxGeometry relative="1" as="geometry" />
        </mxCell>
        <mxCell id="IXZvvqu_5NTiVDgzNTZM-4" value="&lt;p class=&quot;MsoNormal&quot;&gt;评估匿名化程度&lt;/p&gt;" style="rounded=1;whiteSpace=wrap;html=1;" vertex="1" parent="1">
          <mxGeometry x="240" y="210" width="120" height="30" as="geometry" />
        </mxCell>
        <mxCell id="IXZvvqu_5NTiVDgzNTZM-5" style="edgeStyle=orthogonalEdgeStyle;rounded=0;orthogonalLoop=1;jettySize=auto;html=1;entryX=0.5;entryY=0;entryDx=0;entryDy=0;endArrow=none;endFill=0;" edge="1" parent="1" source="IXZvvqu_5NTiVDgzNTZM-6" target="IXZvvqu_5NTiVDgzNTZM-9">
          <mxGeometry relative="1" as="geometry" />
        </mxCell>
        <mxCell id="IXZvvqu_5NTiVDgzNTZM-6" value="&lt;p class=&quot;MsoNormal&quot;&gt;评估加密保护&lt;/p&gt;" style="rounded=1;whiteSpace=wrap;html=1;" vertex="1" parent="1">
          <mxGeometry x="240" y="310" width="120" height="30" as="geometry" />
        </mxCell>
        <mxCell id="IXZvvqu_5NTiVDgzNTZM-7" style="edgeStyle=orthogonalEdgeStyle;rounded=0;orthogonalLoop=1;jettySize=auto;html=1;entryX=0.5;entryY=0;entryDx=0;entryDy=0;endArrow=none;endFill=0;" edge="1" parent="1" source="IXZvvqu_5NTiVDgzNTZM-8" target="IXZvvqu_5NTiVDgzNTZM-6">
          <mxGeometry relative="1" as="geometry" />
        </mxCell>
        <mxCell id="IXZvvqu_5NTiVDgzNTZM-8" value="&lt;p class=&quot;MsoNormal&quot;&gt;评估访问控制&lt;/p&gt;" style="rounded=1;whiteSpace=wrap;html=1;" vertex="1" parent="1">
          <mxGeometry x="240" y="260" width="120" height="30" as="geometry" />
        </mxCell>
        <mxCell id="IXZvvqu_5NTiVDgzNTZM-13" style="edgeStyle=orthogonalEdgeStyle;rounded=0;orthogonalLoop=1;jettySize=auto;html=1;endArrow=none;endFill=0;" edge="1" parent="1" source="IXZvvqu_5NTiVDgzNTZM-9" target="IXZvvqu_5NTiVDgzNTZM-10">
          <mxGeometry relative="1" as="geometry" />
        </mxCell>
        <mxCell id="IXZvvqu_5NTiVDgzNTZM-9" value="&lt;p class=&quot;MsoNormal&quot;&gt;评估隐私政策合规性&lt;/p&gt;" style="rounded=1;whiteSpace=wrap;html=1;" vertex="1" parent="1">
          <mxGeometry x="240" y="360" width="120" height="30" as="geometry" />
        </mxCell>
        <mxCell id="IXZvvqu_5NTiVDgzNTZM-14" style="edgeStyle=orthogonalEdgeStyle;rounded=0;orthogonalLoop=1;jettySize=auto;html=1;endArrow=none;endFill=0;" edge="1" parent="1" source="IXZvvqu_5NTiVDgzNTZM-10" target="IXZvvqu_5NTiVDgzNTZM-11">
          <mxGeometry relative="1" as="geometry" />
        </mxCell>
        <mxCell id="IXZvvqu_5NTiVDgzNTZM-10" value="&lt;p class=&quot;MsoNormal&quot;&gt;审计和检查&lt;/p&gt;" style="rounded=1;whiteSpace=wrap;html=1;" vertex="1" parent="1">
          <mxGeometry x="240" y="410" width="120" height="30" as="geometry" />
        </mxCell>
        <mxCell id="IXZvvqu_5NTiVDgzNTZM-15" style="edgeStyle=orthogonalEdgeStyle;rounded=0;orthogonalLoop=1;jettySize=auto;html=1;entryX=0.5;entryY=0;entryDx=0;entryDy=0;endArrow=none;endFill=0;" edge="1" parent="1" source="IXZvvqu_5NTiVDgzNTZM-11" target="IXZvvqu_5NTiVDgzNTZM-12">
          <mxGeometry relative="1" as="geometry" />
        </mxCell>
        <mxCell id="IXZvvqu_5NTiVDgzNTZM-11" value="&lt;p class=&quot;MsoNormal&quot;&gt;评估风险管理&lt;/p&gt;" style="rounded=1;whiteSpace=wrap;html=1;" vertex="1" parent="1">
          <mxGeometry x="240" y="460" width="120" height="30" as="geometry" />
        </mxCell>
        <mxCell id="IXZvvqu_5NTiVDgzNTZM-12" value="&lt;p class=&quot;MsoNormal&quot;&gt;分析和改进&lt;/p&gt;" style="rounded=1;whiteSpace=wrap;html=1;" vertex="1" parent="1">
          <mxGeometry x="240" y="510" width="120" height="30" as="geometry" />
        </mxCell>
      </root>
    </mxGraphModel>
  </diagram>
  <diagram id="NvZlZwjBTkfk2ZuHxaWg" name="第 5 页">
    <mxGraphModel dx="416" dy="329" grid="1" gridSize="10" guides="1" tooltips="1" connect="1" arrows="1" fold="1" page="1" pageScale="1" pageWidth="827" pageHeight="1169" math="0" shadow="0">
      <root>
        <mxCell id="0" />
        <mxCell id="1" parent="0" />
        <mxCell id="XznIJ2uS1ImtVXkLev_C-1" style="edgeStyle=orthogonalEdgeStyle;rounded=0;orthogonalLoop=1;jettySize=auto;html=1;endArrow=none;endFill=0;" edge="1" parent="1" source="XznIJ2uS1ImtVXkLev_C-2" target="XznIJ2uS1ImtVXkLev_C-4">
          <mxGeometry relative="1" as="geometry" />
        </mxCell>
        <mxCell id="XznIJ2uS1ImtVXkLev_C-2" value="&lt;p class=&quot;MsoNormal&quot;&gt;确定权重系数&lt;/p&gt;" style="rounded=1;whiteSpace=wrap;html=1;" vertex="1" parent="1">
          <mxGeometry x="240" y="160" width="120" height="30" as="geometry" />
        </mxCell>
        <mxCell id="XznIJ2uS1ImtVXkLev_C-3" style="edgeStyle=orthogonalEdgeStyle;rounded=0;orthogonalLoop=1;jettySize=auto;html=1;endArrow=none;endFill=0;" edge="1" parent="1" source="XznIJ2uS1ImtVXkLev_C-4" target="XznIJ2uS1ImtVXkLev_C-8">
          <mxGeometry relative="1" as="geometry" />
        </mxCell>
        <mxCell id="XznIJ2uS1ImtVXkLev_C-4" value="&lt;p class=&quot;MsoNormal&quot;&gt;计算时间间隔&lt;/p&gt;" style="rounded=1;whiteSpace=wrap;html=1;" vertex="1" parent="1">
          <mxGeometry x="240" y="210" width="120" height="30" as="geometry" />
        </mxCell>
        <mxCell id="XznIJ2uS1ImtVXkLev_C-6" value="&lt;p class=&quot;MsoNormal&quot;&gt;分析和改进&lt;/p&gt;" style="rounded=1;whiteSpace=wrap;html=1;" vertex="1" parent="1">
          <mxGeometry x="240" y="310" width="120" height="30" as="geometry" />
        </mxCell>
        <mxCell id="XznIJ2uS1ImtVXkLev_C-7" style="edgeStyle=orthogonalEdgeStyle;rounded=0;orthogonalLoop=1;jettySize=auto;html=1;entryX=0.5;entryY=0;entryDx=0;entryDy=0;endArrow=none;endFill=0;" edge="1" parent="1" source="XznIJ2uS1ImtVXkLev_C-8" target="XznIJ2uS1ImtVXkLev_C-6">
          <mxGeometry relative="1" as="geometry" />
        </mxCell>
        <mxCell id="XznIJ2uS1ImtVXkLev_C-8" value="&lt;p class=&quot;MsoNormal&quot;&gt;计算时序合规性得分&lt;/p&gt;" style="rounded=1;whiteSpace=wrap;html=1;" vertex="1" parent="1">
          <mxGeometry x="240" y="260" width="120" height="30" as="geometry" />
        </mxCell>
      </root>
    </mxGraphModel>
  </diagram>
</mxfile>
